<svg width="16" height="14" viewBox="0 0 16 14" xmlns="http://www.w3.org/2000/svg" >
<path fill-rule="evenodd" clip-rule="evenodd" d="M1.75011 0.333008C1.28598 0.333008 0.840867 0.537868 0.512681 0.902523C0.184495 1.26718 0.000121509 1.76175 0.000121509 2.27745L0.000121509 3.09523C-4.0503e-05 3.10523 -4.0503e-05 3.11523 0.000121509 3.12523L0.000121509 11.7219C0.000121509 12.7952 0.784115 13.6663 1.75011 13.6663H14.25C14.7141 13.6663 15.1593 13.4615 15.4874 13.0968C15.8156 12.7322 16 12.2376 16 11.7219V2.27745C16 1.76175 15.8156 1.26718 15.4874 0.902523C15.1593 0.537868 14.7141 0.333008 14.25 0.333008H1.75011ZM14.5 2.63301V2.27745C14.5 2.20378 14.4737 2.13313 14.4268 2.08103C14.3799 2.02894 14.3163 1.99967 14.25 1.99967H1.75011C1.6838 1.99967 1.62022 2.02894 1.57333 2.08103C1.52645 2.13313 1.50011 2.20378 1.50011 2.27745V2.63301L8.00006 6.86634L14.5 2.63301ZM1.50011 4.56634V11.723C1.50011 11.8763 1.61211 12.0008 1.75011 12.0008H14.25C14.3163 12.0008 14.3799 11.9715 14.4268 11.9194C14.4737 11.8673 14.5 11.7967 14.5 11.723V4.56523L8.38006 8.5519C8.26486 8.62712 8.13367 8.66678 8.00006 8.66678C7.86645 8.66678 7.73526 8.62712 7.62006 8.5519L1.50011 4.56523V4.56634Z" />
</svg>
