<svg width="40" height="38" viewBox="0 0 40 38" fill="none" xmlns="http://www.w3.org/2000/svg">
<path d="M31.83 0.624777C30.0625 0.624777 28.3475 1.25478 27.0175 2.40978C25.67 3.54728 24.795 5.13978 24.515 6.88978L20.2975 33.6298C20.28 33.7698 20.1575 33.8748 20 33.8748C19.86 33.8748 19.72 33.7698 19.7025 33.6298L15.485 6.87228C15.205 5.12228 14.3125 3.54728 12.9825 2.39228C11.903 1.47432 10.5834 0.884505 9.17941 0.692495C7.77546 0.500486 6.34589 0.714307 5.05956 1.3087C3.77324 1.9031 2.68391 2.85323 1.92026 4.04687C1.1566 5.2405 0.750525 6.62776 0.75 8.04478C0.75 9.00728 1.5375 9.79478 2.5 9.79478C3.4625 9.79478 4.25 9.00728 4.25 8.04478C4.25 5.87478 6 4.12478 8.17 4.12478C10.1125 4.12478 11.74 5.50728 12.0375 7.43228L16.255 34.1723C16.3935 35.0656 16.8473 35.8797 17.5343 36.4672C18.2213 37.0547 19.0961 37.3767 20 37.3748C21.8725 37.3748 23.465 36.0273 23.745 34.1723L27.9625 7.43228C28.26 5.52478 29.8875 4.12478 31.83 4.12478C34 4.12478 35.75 5.87478 35.75 8.04478C35.75 9.00728 36.5375 9.79478 37.5 9.79478C38.4625 9.79478 39.25 9.00728 39.25 8.04478C39.25 3.94978 35.925 0.624777 31.83 0.624777Z" fill="white"/>
</svg>
