<svg width="36" height="32" viewBox="0 0 36 32" fill="none" xmlns="http://www.w3.org/2000/svg">
<path d="M26.82 24.8889H34.2C35.19 24.8889 36 24.0889 36 23.1111C36 22.1333 35.19 21.3333 34.2 21.3333H30.474C31.734 19.2 32.4 16.7644 32.4 14.2222C32.4 6.38222 25.938 0 18 0C10.062 0 3.6 6.38222 3.6 14.2222C3.6 16.7644 4.266 19.2 5.526 21.3333H1.8C0.81 21.3333 0 22.1333 0 23.1111C0 24.0889 0.81 24.8889 1.8 24.8889H9.18C9.918 24.8889 10.566 24.4444 10.854 23.7867C11.124 23.1289 10.962 22.3467 10.44 21.8489C9.41027 20.8568 8.59285 19.6705 8.03628 18.3603C7.4797 17.0502 7.19532 15.643 7.2 14.2222C7.2 8.33778 12.042 3.55556 18 3.55556C23.958 3.55556 28.8 8.33778 28.8 14.2222C28.8 17.12 27.648 19.8222 25.56 21.8489C25.038 22.3467 24.876 23.1111 25.146 23.7867C25.434 24.4444 26.082 24.8889 26.82 24.8889ZM0 30.2222C0 31.2 0.81 32 1.8 32H34.2C35.19 32 36 31.2 36 30.2222C36 29.2444 35.19 28.4444 34.2 28.4444H1.8C0.81 28.4444 0 29.2444 0 30.2222Z" fill="white"/>
</svg>
