<svg width="38" height="38" viewBox="0 0 38 38" fill="none" xmlns="http://www.w3.org/2000/svg">
<path d="M20.9199 11.0374C20.9199 8.0146 19.5069 5.30276 17.2786 3.48912C24.3802 3.8173 30.8296 7.37551 34.6521 13.1619C34.9963 13.6801 35.5761 13.9737 36.192 13.9737C36.5181 13.9737 36.8623 13.8874 37.1522 13.6974C38.0036 13.1792 38.2573 12.1255 37.7138 11.3137C35.4198 7.84898 32.2431 4.99443 28.4797 3.01613C24.7164 1.03784 20.489 0.000222152 16.1916 0C12.8944 0 9.6878 0.587277 6.66237 1.76183C6.66237 1.76183 6.64425 1.76183 6.64425 1.7791C4.69117 2.5082 3.01385 3.78153 1.83107 5.43304C0.648298 7.08454 0.0149624 9.03756 0.0136719 11.0374C0.0136719 16.5301 4.70581 21.0038 10.4668 21.0038C16.2278 21.0038 20.9199 16.5301 20.9199 11.0374ZM17.2967 11.0374C17.2967 14.6301 14.235 17.5492 10.4668 17.5492C6.6986 17.5492 3.63694 14.6301 3.63694 11.0374C3.63694 7.4446 6.6986 4.52549 10.4668 4.52549C14.235 4.52549 17.2967 7.4446 17.2967 11.0374Z" fill="white"/>
<path d="M27.5323 16.9961C33.2933 16.9961 37.9854 21.4698 37.9854 26.9625C37.9816 28.9618 37.3473 30.9137 36.1649 32.5648C34.9824 34.2159 33.3065 35.4897 31.3548 36.2208L31.353 36.2363L31.3367 36.238C28.3113 37.4126 25.1047 37.9999 21.8075 37.9999C17.5101 37.9997 13.2827 36.962 9.51935 34.9837C5.75602 33.0055 2.57929 30.1509 0.285292 26.6862C0.156547 26.4949 0.0689046 26.2812 0.0274476 26.0574C-0.0140094 25.8336 -0.00845639 25.6042 0.0437848 25.3825C0.096026 25.1607 0.193915 24.9511 0.331778 24.7657C0.46964 24.5803 0.644731 24.4229 0.846898 24.3025C1.04749 24.1798 1.27164 24.0962 1.50636 24.0567C1.74108 24.0171 1.9817 24.0224 2.21426 24.0722C2.44681 24.1221 2.66669 24.2154 2.86112 24.3468C3.05556 24.4783 3.2207 24.6452 3.34695 24.838C7.1695 30.6244 13.6189 34.1826 20.7205 34.5108C19.5763 33.5792 18.658 32.4218 18.0292 31.1184C17.4005 29.8151 17.0763 28.3971 17.0791 26.9625C17.0791 21.4698 21.7713 16.9961 27.5323 16.9961ZM20.7024 26.9625C20.7024 30.5553 23.7641 33.4744 27.5323 33.4744C31.3005 33.4744 34.3621 30.5553 34.3621 26.9625C34.3621 23.3698 31.3005 20.4507 27.5323 20.4507C23.7641 20.4507 20.7024 23.3698 20.7024 26.9625Z" fill="white"/>
</svg>
