<svg width="42" height="34" viewBox="0 0 42 34" fill="none" xmlns="http://www.w3.org/2000/svg">
<path d="M42 19.3213V13.6375C42 9.251 38.3936 5.66666 33.9417 5.66666C32.2334 5.66666 30.6458 6.19578 29.3344 7.1004V6.82731C29.3344 3.05522 26.2457 0 22.4322 0C21.4522 0.00122752 20.4837 0.20887 19.5911 0.609114C18.6985 1.00936 17.9024 1.59302 17.2555 2.32128C16.6087 1.59302 15.8126 1.00936 14.92 0.609114C14.0274 0.20887 13.0589 0.00122752 12.0789 0C11.0989 0.00122752 10.1304 0.20887 9.23778 0.609114C8.3452 1.00936 7.54903 1.59302 6.90222 2.32128C6.25541 1.59302 5.45923 1.00936 4.56666 0.609114C3.67408 0.20887 2.70557 0.00122752 1.72555 0C0.7765 0 0 0.768072 0 1.70683C0 2.64558 0.7765 3.41365 1.72555 3.41365C3.62366 3.41365 5.17666 4.9498 5.17666 6.82731V27.3092C5.17666 28.248 5.95316 29.0161 6.90222 29.0161C7.85127 29.0161 8.62777 28.248 8.62777 27.3092V6.82731C8.62777 4.9498 10.1808 3.41365 12.0789 3.41365C13.977 3.41365 15.53 4.9498 15.53 6.82731V27.3092C15.53 28.248 16.3065 29.0161 17.2555 29.0161C18.2046 29.0161 18.9811 28.248 18.9811 27.3092V6.82731C18.9811 4.9498 20.5341 3.41365 22.4322 3.41365C24.3303 3.41365 25.8833 4.9498 25.8833 6.82731V19.3213C25.8847 21.1201 26.3596 22.8876 27.2612 24.4499C28.1628 26.0121 29.4601 27.3152 31.0255 28.2309L27.35 30.9106C27.0563 31.125 26.8387 31.4258 26.7282 31.77C26.6177 32.1141 26.6201 32.484 26.735 32.8267C26.8498 33.1695 27.0713 33.4675 27.3677 33.6782C27.6641 33.8889 28.0203 34.0016 28.3854 34C28.7477 34 29.0928 33.8976 29.4034 33.6586L33.9417 30.3474L38.4799 33.6586C38.7905 33.8805 39.1528 34 39.4979 34C39.8619 33.9994 40.2165 33.8855 40.5114 33.6745C40.8063 33.4635 41.0266 33.1661 41.1412 32.8244C41.2557 32.4826 41.2586 32.1139 41.1495 31.7704C41.0404 31.427 40.8248 31.1262 40.5333 30.9106L36.8578 28.2309C38.4232 27.3152 39.7205 26.0121 40.6221 24.4499C41.5237 22.8876 41.9986 21.1201 42 19.3213ZM38.5489 19.3213C38.5489 21.8303 37.1684 24.1687 34.9425 25.3805L33.9417 25.9438L32.9408 25.3805C31.8491 24.7792 30.9393 23.9007 30.3054 22.8356C29.6714 21.7704 29.3362 20.5573 29.3344 19.3213V13.6375C29.3344 11.1285 31.4051 9.08032 33.9417 9.08032C36.4782 9.08032 38.5489 11.1285 38.5489 13.6375V19.3213Z" fill="white"/>
</svg>
