<svg width="180" height="60" viewBox="0 0 180 60" fill="none" xmlns="http://www.w3.org/2000/svg">
<rect x="0.5" y="0.5" width="179" height="59" rx="6.5" fill="#0C0D10"/>
<path d="M122.289 28.8014V32.2379H120.135V34.4916H122.289V42.1491C122.289 44.7638 123.472 45.8097 126.448 45.8097C126.971 45.8097 127.469 45.7475 127.904 45.6727V43.444C127.531 43.4813 127.294 43.5062 126.883 43.5062C125.551 43.5062 124.966 42.8837 124.966 41.4643V34.4916H127.904V32.2379H124.966V28.8014H122.289Z" fill="white"/>
<path d="M135.485 45.9965C139.445 45.9965 141.873 43.3444 141.873 38.9491C141.873 34.5788 139.432 31.9142 135.485 31.9142C131.526 31.9142 129.085 34.5788 129.085 38.9491C129.085 43.3444 131.513 45.9965 135.485 45.9965ZM135.485 43.6183C133.157 43.6183 131.85 41.9125 131.85 38.9491C131.85 36.0106 133.157 34.2924 135.485 34.2924C137.801 34.2924 139.121 36.0106 139.121 38.9491C139.121 41.9 137.801 43.6183 135.485 43.6183Z" fill="white"/>
<path d="M143.95 45.735H146.627V37.7289C146.627 35.8239 148.059 34.5414 150.088 34.5414C150.562 34.5414 151.359 34.6286 151.583 34.7033V32.0636C151.296 31.9889 150.786 31.9516 150.387 31.9516C148.619 31.9516 147.113 32.9227 146.727 34.255H146.527V32.1757H143.95V45.735Z" fill="white"/>
<path d="M158.23 34.1928C160.209 34.1928 161.504 35.5748 161.566 37.704H154.718C154.868 35.5873 156.25 34.1928 158.23 34.1928ZM161.554 42.0744C161.056 43.1327 159.948 43.7179 158.329 43.7179C156.188 43.7179 154.805 42.2113 154.718 39.8331V39.6837H164.293V38.7499C164.293 34.4916 162.015 31.9142 158.242 31.9142C154.42 31.9142 151.992 34.6659 151.992 38.9989C151.992 43.3319 154.37 45.9965 158.254 45.9965C161.355 45.9965 163.521 44.5023 164.131 42.0744H161.554Z" fill="white"/>
<path d="M104.734 40.7278C104.94 44.0573 107.715 46.1867 111.844 46.1867C116.258 46.1867 119.02 43.9541 119.02 40.3922C119.02 37.5918 117.445 36.0431 113.625 35.1527L111.573 34.6494C109.147 34.0815 108.166 33.3201 108.166 31.9909C108.166 30.3132 109.689 29.2163 111.973 29.2163C114.142 29.2163 115.639 30.2874 115.91 32.0038H118.723C118.555 28.8678 115.793 26.661 112.012 26.661C107.947 26.661 105.237 28.8678 105.237 32.1845C105.237 34.9204 106.773 36.5464 110.141 37.3337L112.541 37.9144C115.006 38.4951 116.09 39.3469 116.09 40.7665C116.09 42.4183 114.387 43.6185 112.064 43.6185C109.573 43.6185 107.844 42.4958 107.599 40.7278H104.734Z" fill="white"/>
<path d="M77.0026 31.9516C75.1599 31.9516 73.5661 32.8729 72.7443 34.4169H72.5451V32.1757H69.9677V50.2423H72.6447V43.6806H72.8564C73.5661 45.1124 75.0976 45.9591 77.0275 45.9591C80.4516 45.9591 82.6306 43.2572 82.6306 38.9491C82.6306 34.641 80.4516 31.9516 77.0026 31.9516ZM76.2431 43.556C74.0019 43.556 72.5949 41.788 72.5949 38.9616C72.5949 36.1227 74.0019 34.3546 76.2556 34.3546C78.5217 34.3546 79.8789 36.0853 79.8789 38.9491C79.8789 41.8253 78.5217 43.556 76.2431 43.556Z" fill="white"/>
<path d="M91.9978 31.9516C90.1551 31.9516 88.5613 32.8729 87.7395 34.4169H87.5403V32.1757H84.9629V50.2423H87.6399V43.6806H87.8516C88.5613 45.1124 90.0928 45.9591 92.0227 45.9591C95.4468 45.9591 97.6258 43.2572 97.6258 38.9491C97.6258 34.641 95.4468 31.9516 91.9978 31.9516ZM91.2383 43.556C88.9971 43.556 87.5901 41.788 87.5901 38.9616C87.5901 36.1227 88.9971 34.3546 91.2508 34.3546C93.5169 34.3546 94.8741 36.0853 94.8741 38.9491C94.8741 41.8253 93.5169 43.556 91.2383 43.556Z" fill="white"/>
<path d="M65.1647 45.735H68.2362L61.5125 27.1127H58.4024L51.6787 45.735H54.6469L56.3633 40.7923H63.4612L65.1647 45.735ZM59.809 30.4939H60.0284L62.7256 38.3661H57.0989L59.809 30.4939Z" fill="white"/>
<path d="M53.4766 13.0664V22.0499H56.7201C59.3971 22.0499 60.9473 20.4001 60.9473 17.5302C60.9473 14.7037 59.3846 13.0664 56.7201 13.0664H53.4766ZM54.8711 14.3364H56.5645C58.4259 14.3364 59.5278 15.5193 59.5278 17.5488C59.5278 19.6095 58.4446 20.7799 56.5645 20.7799H54.8711V14.3364Z" fill="white"/>
<path d="M65.6949 22.1807C67.6746 22.1807 68.8886 20.8546 68.8886 18.657C68.8886 16.4718 67.6684 15.1395 65.6949 15.1395C63.7152 15.1395 62.4949 16.4718 62.4949 18.657C62.4949 20.8546 63.7089 22.1807 65.6949 22.1807ZM65.6949 20.9916C64.5307 20.9916 63.877 20.1387 63.877 18.657C63.877 17.1877 64.5307 16.3286 65.6949 16.3286C66.8529 16.3286 67.5128 17.1877 67.5128 18.657C67.5128 20.1324 66.8529 20.9916 65.6949 20.9916Z" fill="white"/>
<path d="M79.2268 15.2703H77.8883L76.6806 20.4437H76.5747L75.1802 15.2703H73.8977L72.5032 20.4437H72.4036L71.1896 15.2703H69.8324L71.7001 22.0499H73.076L74.4705 17.057H74.5763L75.9771 22.0499H77.3654L79.2268 15.2703Z" fill="white"/>
<path d="M80.7683 22.0499H82.1068V18.0842C82.1068 17.0259 82.7356 16.366 83.7254 16.366C84.7153 16.366 85.1884 16.9076 85.1884 17.9971V22.0499H86.527V17.6609C86.527 16.0485 85.6927 15.1395 84.1799 15.1395C83.1589 15.1395 82.4865 15.594 82.1566 16.3473H82.057V15.2703H80.7683V22.0499Z" fill="white"/>
<path d="M88.6349 22.0499H89.9734V12.6244H88.6349V22.0499Z" fill="white"/>
<path d="M95.0074 22.1807C96.9872 22.1807 98.2012 20.8546 98.2012 18.657C98.2012 16.4718 96.981 15.1395 95.0074 15.1395C93.0277 15.1395 91.8075 16.4718 91.8075 18.657C91.8075 20.8546 93.0215 22.1807 95.0074 22.1807ZM95.0074 20.9916C93.8433 20.9916 93.1896 20.1387 93.1896 18.657C93.1896 17.1877 93.8433 16.3286 95.0074 16.3286C96.1654 16.3286 96.8253 17.1877 96.8253 18.657C96.8253 20.1324 96.1654 20.9916 95.0074 20.9916Z" fill="white"/>
<path d="M102.189 21.0352C101.461 21.0352 100.932 20.6803 100.932 20.0702C100.932 19.4725 101.355 19.155 102.289 19.0928L103.945 18.9869V19.5535C103.945 20.3939 103.198 21.0352 102.189 21.0352ZM101.847 22.162C102.737 22.162 103.478 21.776 103.883 21.0974H103.988V22.0499H105.277V17.4181C105.277 15.9862 104.318 15.1395 102.619 15.1395C101.081 15.1395 99.9854 15.8866 99.8485 17.0508H101.143C101.293 16.5714 101.81 16.2975 102.557 16.2975C103.472 16.2975 103.945 16.7021 103.945 17.4181V18.0033L102.108 18.1091C100.496 18.2087 99.587 18.9122 99.587 20.1324C99.587 21.3713 100.539 22.162 101.847 22.162Z" fill="white"/>
<path d="M109.819 22.162C110.753 22.162 111.544 21.72 111.949 20.9791H112.054V22.0499H113.337V12.6244H111.998V16.3473H111.899C111.531 15.6002 110.747 15.1582 109.819 15.1582C108.107 15.1582 107.005 16.5154 107.005 18.657C107.005 20.8048 108.095 22.162 109.819 22.162ZM110.199 16.3597C111.32 16.3597 112.023 17.25 112.023 18.6632C112.023 20.0826 111.326 20.9604 110.199 20.9604C109.066 20.9604 108.387 20.0951 108.387 18.657C108.387 17.2313 109.072 16.3597 110.199 16.3597Z" fill="white"/>
<path d="M122.017 22.1807C123.996 22.1807 125.21 20.8546 125.21 18.657C125.21 16.4718 123.99 15.1395 122.017 15.1395C120.037 15.1395 118.817 16.4718 118.817 18.657C118.817 20.8546 120.031 22.1807 122.017 22.1807ZM122.017 20.9916C120.852 20.9916 120.199 20.1387 120.199 18.657C120.199 17.1877 120.852 16.3286 122.017 16.3286C123.174 16.3286 123.834 17.1877 123.834 18.657C123.834 20.1324 123.174 20.9916 122.017 20.9916Z" fill="white"/>
<path d="M126.982 22.0499H128.321V18.0842C128.321 17.0259 128.949 16.366 129.939 16.366C130.929 16.366 131.402 16.9076 131.402 17.9971V22.0499H132.741V17.6609C132.741 16.0485 131.906 15.1395 130.394 15.1395C129.373 15.1395 128.7 15.594 128.37 16.3473H128.271V15.2703H126.982V22.0499Z" fill="white"/>
<path d="M138.905 13.5831V15.3014H137.828V16.4282H138.905V20.257C138.905 21.5643 139.497 22.0873 140.985 22.0873C141.246 22.0873 141.495 22.0562 141.713 22.0188V20.9044C141.526 20.9231 141.408 20.9355 141.203 20.9355C140.536 20.9355 140.244 20.6243 140.244 19.9146V16.4282H141.713V15.3014H140.244V13.5831H138.905Z" fill="white"/>
<path d="M143.51 22.0499H144.848V18.0905C144.848 17.0632 145.458 16.3722 146.554 16.3722C147.5 16.3722 148.005 16.92 148.005 18.0033V22.0499H149.343V17.6733C149.343 16.0609 148.453 15.1458 147.009 15.1458C145.988 15.1458 145.272 15.6002 144.942 16.3597H144.836V12.6244H143.51V22.0499Z" fill="white"/>
<path d="M154.172 16.2788C155.162 16.2788 155.809 16.9698 155.84 18.0344H152.416C152.491 16.9761 153.182 16.2788 154.172 16.2788ZM155.834 20.2196C155.585 20.7488 155.031 21.0414 154.221 21.0414C153.151 21.0414 152.46 20.2881 152.416 19.099V19.0243H157.204V18.5574C157.204 16.4282 156.064 15.1395 154.178 15.1395C152.267 15.1395 151.053 16.5154 151.053 18.6819C151.053 20.8484 152.242 22.1807 154.184 22.1807C155.734 22.1807 156.818 21.4336 157.123 20.2196H155.834Z" fill="white"/>
<path d="M37.1535 30.4512C37.186 27.9297 38.5401 25.5438 40.6883 24.2231C39.3331 22.2877 37.0632 21.0605 34.7016 20.9866C32.1827 20.7222 29.7408 22.4939 28.4572 22.4939C27.1488 22.4939 25.1726 21.0129 23.0445 21.0567C20.2706 21.1463 17.6847 22.7233 16.3351 25.1485C13.4341 30.1711 15.598 37.5527 18.3769 41.6126C19.7673 43.6006 21.3922 45.8213 23.5184 45.7425C25.5989 45.6562 26.376 44.4158 28.8875 44.4158C31.3756 44.4158 32.1046 45.7425 34.274 45.6925C36.5065 45.6562 37.9131 43.6956 39.2547 41.6887C40.2537 40.2722 41.0224 38.7066 41.5323 37.05C38.9087 35.9403 37.1566 33.2999 37.1535 30.4512Z" fill="white"/>
<path d="M33.056 18.3166C34.2733 16.8553 34.873 14.977 34.7278 13.0807C32.868 13.276 31.1501 14.1649 29.9164 15.5701C28.71 16.9431 28.0821 18.7883 28.2008 20.6122C30.0613 20.6313 31.8902 19.7666 33.056 18.3166Z" fill="white"/>
<rect x="0.5" y="0.5" width="179" height="59" rx="6.5" stroke="#A6A6A6"/>
</svg>
