<svg width="200" height="59" viewBox="0 0 200 59" fill="none" xmlns="http://www.w3.org/2000/svg">
<rect x="0.5" y="0.5" width="199" height="58" rx="4.5" fill="black"/>
<path d="M158.421 44.25H161.186V25.8101H158.421V44.25ZM183.321 32.4529L180.152 40.4473H180.057L176.768 32.4529H173.79L178.724 43.6261L175.91 49.8417H178.793L186.395 32.4529H183.321ZM167.642 42.1556C166.738 42.1556 165.475 41.7044 165.475 40.5896C165.475 39.1664 167.048 38.6208 168.405 38.6208C169.62 38.6208 170.193 38.8813 170.931 39.2373C170.716 40.9457 169.239 42.1556 167.642 42.1556ZM167.977 32.0495C165.975 32.0495 163.903 32.9276 163.045 34.8728L165.498 35.8926C166.023 34.8728 166.999 34.5409 168.024 34.5409C169.454 34.5409 170.907 35.3942 170.931 36.913V37.1026C170.43 36.8179 169.358 36.391 168.048 36.391C165.402 36.391 162.71 37.8377 162.71 40.5423C162.71 43.0095 164.879 44.5991 167.309 44.5991C169.167 44.5991 170.193 43.7688 170.835 42.7958H170.931V44.22H173.601V37.1498C173.601 33.876 171.144 32.0495 167.977 32.0495ZM150.893 34.6976H146.961V28.3771H150.893C152.959 28.3771 154.133 30.0802 154.133 31.5372C154.133 32.9662 152.959 34.6976 150.893 34.6976ZM150.821 25.8101H144.197V44.25H146.961V37.2639H150.821C153.885 37.2639 156.897 35.056 156.897 31.5372C156.897 28.0192 153.885 25.8101 150.821 25.8101ZM114.701 42.159C112.791 42.159 111.193 40.5665 111.193 38.3811C111.193 36.1704 112.791 34.5552 114.701 34.5552C116.586 34.5552 118.066 36.1704 118.066 38.3811C118.066 40.5665 116.586 42.159 114.701 42.159ZM117.875 33.4854H117.779C117.159 32.749 115.965 32.0836 114.462 32.0836C111.311 32.0836 108.424 34.8405 108.424 38.3811C108.424 41.8975 111.311 44.6302 114.462 44.6302C115.965 44.6302 117.159 43.9647 117.779 43.2048H117.875V44.1071C117.875 46.508 116.586 47.7906 114.51 47.7906C112.816 47.7906 111.766 46.5789 111.336 45.5573L108.925 46.5552C109.617 48.2181 111.454 50.2623 114.51 50.2623C117.756 50.2623 120.501 48.361 120.501 43.7268V32.4638H117.875V33.4854ZM122.411 44.25H125.178V25.8101H122.411V44.25ZM129.26 38.1668C129.189 35.7428 131.146 34.5075 132.554 34.5075C133.652 34.5075 134.582 35.0542 134.894 35.8379L129.26 38.1668ZM137.852 36.0752C137.327 34.674 135.728 32.0836 132.458 32.0836C129.212 32.0836 126.515 34.6262 126.515 38.3569C126.515 41.8739 129.189 44.6302 132.768 44.6302C135.656 44.6302 137.327 42.8723 138.02 41.8502L135.872 40.4241C135.155 41.4699 134.177 42.159 132.768 42.159C131.361 42.159 130.358 41.5172 129.714 40.2577L138.138 36.7885L137.852 36.0752ZM70.7293 34.0085V36.6698H77.1256C76.9346 38.1668 76.4334 39.2598 75.6696 40.0203C74.7385 40.9467 73.2825 41.9689 70.7293 41.9689C66.7911 41.9689 63.7124 38.8086 63.7124 34.8877C63.7124 30.9669 66.7911 27.8061 70.7293 27.8061C72.8536 27.8061 74.4045 28.638 75.5503 29.7074L77.4364 27.8297C75.8368 26.3091 73.713 25.1447 70.7293 25.1447C65.3345 25.1447 60.7998 29.5172 60.7998 34.8877C60.7998 40.2577 65.3345 44.6302 70.7293 44.6302C73.6407 44.6302 75.8368 43.6796 77.5551 41.8975C79.3213 40.139 79.8705 37.6678 79.8705 35.6714C79.8705 35.0542 79.8223 34.4839 79.7269 34.0085H70.7293ZM87.1425 42.159C85.2327 42.159 83.5857 40.5907 83.5857 38.3569C83.5857 36.0994 85.2327 34.5552 87.1425 34.5552C89.0515 34.5552 90.6985 36.0994 90.6985 38.3569C90.6985 40.5907 89.0515 42.159 87.1425 42.159ZM87.1425 32.0836C83.6568 32.0836 80.8171 34.7212 80.8171 38.3569C80.8171 41.9689 83.6568 44.6302 87.1425 44.6302C90.6268 44.6302 93.4671 41.9689 93.4671 38.3569C93.4671 34.7212 90.6268 32.0836 87.1425 32.0836ZM100.939 42.159C99.0308 42.159 97.3832 40.5907 97.3832 38.3569C97.3832 36.0994 99.0308 34.5552 100.939 34.5552C102.849 34.5552 104.495 36.0994 104.495 38.3569C104.495 40.5907 102.849 42.159 100.939 42.159ZM100.939 32.0836C97.4549 32.0836 94.6152 34.7212 94.6152 38.3569C94.6152 41.9689 97.4549 44.6302 100.939 44.6302C104.425 44.6302 107.265 41.9689 107.265 38.3569C107.265 34.7212 104.425 32.0836 100.939 32.0836Z" fill="white"/>
<path d="M65.8919 19.5207C64.5637 19.5207 63.4212 19.0554 62.5001 18.1384C61.5786 17.2209 61.1118 16.072 61.1118 14.7362C61.1118 13.4003 61.5788 12.2534 62.5001 11.3339C63.4212 10.4168 64.5637 9.95162 65.8919 9.95162C66.5686 9.95162 67.2001 10.068 67.8037 10.3103C68.4074 10.5526 68.9014 10.889 69.2903 11.3292L69.3821 11.4332L68.3459 12.4646L68.2423 12.3378C67.9844 12.0223 67.6563 11.7771 67.2406 11.5989C66.8264 11.4211 66.3727 11.339 65.8919 11.339C64.9564 11.339 64.1802 11.6553 63.532 12.2984C63.5318 12.2985 63.5315 12.2985 63.5314 12.2987C62.8979 12.9547 62.5794 13.7533 62.5794 14.7362C62.5794 15.7197 62.8983 16.5186 63.5325 17.1748C64.1807 17.8175 64.9569 18.1356 65.8919 18.1356C66.7483 18.1356 67.4566 17.8976 68.0134 17.4263H68.0137C68.5321 16.9877 68.8432 16.3951 68.9532 15.6396H65.7438V14.2798H70.3404L70.3601 14.4043C70.3977 14.6433 70.4243 14.8741 70.4243 15.0957C70.4243 16.3644 70.0358 17.4001 69.2736 18.1621C68.4131 19.0702 67.2815 19.5207 65.8919 19.5207L65.8919 19.5207ZM105.806 19.5207C104.475 19.5207 103.346 19.0551 102.437 18.1384C102.437 18.1383 102.437 18.1383 102.437 18.1382C102.437 18.1381 102.437 18.138 102.436 18.1379C101.526 17.231 101.074 16.0819 101.074 14.7361C101.074 13.3904 101.526 12.2412 102.436 11.3344C102.437 11.3343 102.437 11.3343 102.437 11.3341L102.437 11.3338C103.346 10.417 104.475 9.95159 105.806 9.95159C107.133 9.95159 108.263 10.4171 109.172 11.3477C110.083 12.2543 110.535 13.4013 110.535 14.7361C110.535 16.0819 110.083 17.231 109.173 18.1378L109.172 18.1381C108.262 19.0555 107.122 19.5207 105.806 19.5207L105.806 19.5207ZM71.7397 19.3225V10.1498H71.8879H77.242V11.5372H73.1818V14.0563H76.8439V15.416H73.1818V17.9374H77.242V19.3225H71.7397ZM80.6095 19.3225V11.5372H78.1188V10.1498H84.5424V11.5372H84.3942H82.0516V19.3225H80.6095ZM88.6477 19.3225V10.1498H90.0898V10.2973V19.3225H88.6477ZM93.72 19.3225V11.5372H91.2293V10.1498H97.6529V11.5372H97.5048H95.1622V19.3225H93.72ZM111.815 19.3225V10.1498H113.441L117.58 16.7464L117.544 15.4941V10.1498H118.986V19.3225H117.559L113.221 12.3926L113.257 13.644V13.646V19.3225H111.815ZM105.806 18.1356C106.741 18.1356 107.505 17.8179 108.127 17.176L108.128 17.1748L108.129 17.1739C108.761 16.5451 109.07 15.7356 109.07 14.7361C109.07 13.739 108.761 12.9268 108.129 12.2983L108.128 12.2974L108.127 12.2965C107.505 11.6547 106.741 11.339 105.806 11.339C104.868 11.339 104.105 11.6542 103.471 12.296L103.47 12.2966C102.85 12.9403 102.542 13.7393 102.542 14.7361C102.542 15.7353 102.85 16.5317 103.47 17.1756L103.471 17.1762C104.105 17.8181 104.869 18.1355 105.806 18.1355V18.1356Z" fill="white"/>
<path d="M30.6881 28.6492L14.9155 45.3168C14.9161 45.3202 14.9173 45.3231 14.9179 45.3266C15.4016 47.1363 17.0619 48.469 19.0324 48.469C19.8201 48.469 20.5597 48.257 21.1939 47.8847L21.2443 47.8554L38.9983 37.6554L30.6881 28.6492Z" fill="#EA4335"/>
<path d="M46.6455 25.8111L46.6304 25.8007L38.9655 21.3768L30.3301 29.0273L38.9956 37.6537L46.62 33.2737C47.9567 32.5552 48.8642 31.1522 48.8642 29.5343C48.8642 27.928 47.9689 26.5319 46.6455 25.8111Z" fill="#FBBC04"/>
<path d="M14.9152 13.6826C14.8203 14.0307 14.7705 14.3953 14.7705 14.7739V44.2261C14.7705 44.6041 14.8198 44.9699 14.9158 45.3168L31.2312 29.0757L14.9152 13.6826Z" fill="#4285F4"/>
<path d="M30.8045 29.4998L38.9684 21.374L21.2344 11.1372C20.5899 10.7529 19.8376 10.531 19.0325 10.531C17.062 10.531 15.3995 11.866 14.9156 13.6781C14.915 13.6799 14.915 13.681 14.915 13.6827L30.8045 29.4998Z" fill="#34A853"/>
<rect x="0.5" y="0.5" width="199" height="58" rx="4.5" stroke="#A6A6A6"/>
</svg>
