<svg width="70" height="70" viewBox="0 0 70 70" fill="none" xmlns="http://www.w3.org/2000/svg">
<circle cx="35" cy="35" r="35" fill="url(#paint0_linear_1_16531)"/>
<path d="M39.3564 38.723L41.3355 38.9302V55L35.8688 49.177V39.913L37.4566 40.6864L39.3564 38.723ZM30.6436 38.723L28.6635 38.9302V55L34.13 49.177V39.913L32.5424 40.6864L30.6436 38.723ZM45.6353 28.6551L46.2757 30.879L44.3531 32.172L44.1921 34.4825L41.9423 35.0412L41.0006 37.1555L38.694 36.9124L37.0836 38.5722L35 37.5568L32.9164 38.5722L31.306 36.907L28.9994 37.15L28.0577 35.0358L25.8079 34.4825L25.6469 32.1752L23.7188 30.8778L24.3593 28.6541L23 26.7807L24.3637 24.9094L23.7188 22.69L25.6425 21.397L25.8035 19.0896L28.0577 18.5363L28.9994 16.4222L31.306 16.6651L32.9164 15L35 16.0154L37.0836 15L38.694 16.6651L41.0006 16.4222L41.9423 18.5363L44.1921 19.095L44.3531 21.4023L46.2757 22.6954L45.6353 24.9192L47 26.7807L45.6353 28.6551ZM41.3452 26.7807C41.3452 25.5383 40.9759 24.3237 40.2839 23.2907C39.592 22.2576 38.6085 21.4524 37.4578 20.977C36.3071 20.5015 35.0409 20.3771 33.8193 20.6195C32.5977 20.8619 31.4756 21.4602 30.5949 22.3387C29.7142 23.2173 29.1145 24.3366 28.8715 25.5552C28.6285 26.7737 28.7532 28.0368 29.2298 29.1847C29.7065 30.3325 30.5136 31.3137 31.5492 32.0039C32.5848 32.6942 33.8024 33.0626 35.0479 33.0626C36.7172 33.06 38.3175 32.3973 39.4979 31.2198C40.6783 30.0423 41.3426 28.446 41.3452 26.7807ZM35.0479 22.2343C34.1465 22.2343 33.2653 22.501 32.5159 23.0005C31.7664 23.5001 31.1823 24.2101 30.8373 25.0408C30.4924 25.8715 30.4021 26.7856 30.578 27.6675C30.7538 28.5494 31.1879 29.3595 31.8252 29.9953C32.4626 30.6311 33.2746 31.0641 34.1587 31.2395C35.0427 31.4149 35.9591 31.3249 36.7919 30.9808C37.6246 30.6367 38.3364 30.0541 38.8372 29.3064C39.338 28.5588 39.6053 27.6799 39.6053 26.7807C39.6019 25.5763 39.1205 24.4223 38.2665 23.5709C37.4124 22.7196 36.2552 22.2402 35.0479 22.2377V22.2343Z" fill="white"/>
<defs>
<linearGradient id="paint0_linear_1_16531" x1="0.918368" y1="-9.36049" x2="75.9594" y2="-3.63541" gradientUnits="userSpaceOnUse">
<stop stop-color="#9FC5FF"/>
<stop offset="1" stop-color="#A6BAFF"/>
</linearGradient>
</defs>
</svg>
