<svg width="70" height="70" viewBox="0 0 70 70" fill="none" xmlns="http://www.w3.org/2000/svg">
<circle cx="35" cy="35" r="35" fill="url(#paint0_linear_1_16643)"/>
<path d="M22.0001 21C21.2044 21 19 21 19 21C19 21 19.0001 23.2044 19.0001 24V32C19.0001 32.7957 19.0001 35 19.0001 35C19.0001 35 21.2044 35 22.0001 35H48.0001C48.7957 35 51 35 51 35C51 35 51.0001 32.7957 51.0001 32V24C51.0001 23.2044 51 21 51 21C51 21 48.7957 21 48.0001 21H22.0001ZM22.0001 39C21.2044 39 19 39 19 39C19 39 19.0001 41.2044 19.0001 42V46C19.0001 46.7957 19 49 19 49C19 49 21.2044 49 22.0001 49H30.0001C30.7957 49 33 49 33 49C33 49 33.0001 46.7957 33.0001 46V42C33.0001 41.2044 33 39 33 39C33 39 30.7957 39 30.0001 39H22.0001ZM40.0001 39C39.2044 39 37 39 37 39C37 39 37.0001 41.2044 37.0001 42V46C37.0001 46.7957 37 49 37 49C37 49 39.2044 49 40.0001 49H48.0001C48.7957 49 51 49 51 49C51 49 51.0001 46.7957 51.0001 46V42C51.0001 41.2044 51 39 51 39C51 39 48.7957 39 48.0001 39H40.0001Z" fill="white"/>
<defs>
<linearGradient id="paint0_linear_1_16643" x1="0.918368" y1="-9.36049" x2="75.9594" y2="-3.63541" gradientUnits="userSpaceOnUse">
<stop stop-color="#FFEA9F"/>
<stop offset="1" stop-color="#FDFFA6"/>
</linearGradient>
</defs>
</svg>
