<svg width="70" height="70" viewBox="0 0 70 70" fill="none" xmlns="http://www.w3.org/2000/svg">
<circle cx="35" cy="35" r="35" fill="url(#paint0_linear_1_16648)"/>
<path d="M18.8888 41.4111C17.8524 42.8192 17.3701 44.5593 17.5337 46.3C17.6974 48.0407 18.4957 49.6604 19.7764 50.8505C21.0572 52.0407 22.731 52.7182 24.479 52.7539C26.227 52.7897 27.9271 52.1812 29.2555 51.0445C26.7789 50.6183 24.48 49.4805 22.6392 47.7699C20.7983 46.0593 19.4952 43.8498 18.8888 41.4111Z" fill="white"/>
<path d="M23.5333 31.1445C21.7122 33.159 20.728 35.7922 20.7814 38.5073C20.8347 41.2223 21.9216 43.8148 23.8205 45.7562C25.7193 47.6975 28.2871 48.8415 31.0003 48.955C33.7135 49.0685 36.3679 48.1428 38.4222 46.3668C34.4799 46.1697 30.7571 44.4928 27.9971 41.671C25.2371 38.8492 23.643 35.0902 23.5333 31.1445Z" fill="white"/>
<path d="M39.2001 17.2222C41.8621 17.2222 44.4645 18.0111 46.6783 19.4894C48.8922 20.9677 50.6182 23.0689 51.6385 25.5277C52.6587 27.9865 52.9273 30.6925 52.4104 33.3038C51.8935 35.9152 50.6142 38.3148 48.7342 40.1994C46.8542 42.0841 44.4578 43.3693 41.8477 43.8927C39.2376 44.416 36.531 44.1541 34.0697 43.14C31.6084 42.1258 29.5029 40.4049 28.0192 38.1947C26.5354 35.9846 25.74 33.3842 25.7334 30.7222C25.7291 28.9509 26.0741 27.1962 26.7489 25.5585C27.4237 23.9208 28.415 22.4323 29.6659 21.1782C30.9169 19.9242 32.4029 18.9293 34.0389 18.2504C35.675 17.5716 37.4288 17.2222 39.2001 17.2222Z" fill="white"/>
<defs>
<linearGradient id="paint0_linear_1_16648" x1="0.918368" y1="-9.36049" x2="75.9594" y2="-3.63541" gradientUnits="userSpaceOnUse">
<stop stop-color="#C39FFF"/>
<stop offset="1" stop-color="#ADA6FF"/>
</linearGradient>
</defs>
</svg>
