<svg width="70" height="70" viewBox="0 0 70 70" fill="none" xmlns="http://www.w3.org/2000/svg">
<circle cx="35" cy="35" r="35" fill="url(#paint0_linear_1_16616)"/>
<g clip-path="url(#clip0_1_16616)">
<path d="M27.2224 33.3335L26.1113 36.7779H28.3336L27.2224 33.3335Z" fill="white"/>
<path d="M51.129 17H30.4839V23.5292H35.6452V26.1409H18.871C16.6774 26.1409 15 27.8385 15 30.0584C15 32.2784 15 44.4227 15 44.4227C15 46.6426 16.6774 48.3402 18.871 48.3402H20.1613V55L28.2903 48.3402H36.9355V39.1993H51.129C53.3226 39.1993 55 37.5017 55 35.2818V20.9175C55 18.6976 53.3226 17 51.129 17ZM28.9355 42.9863L28.2903 40.8969H24.2903L23.5161 42.9863H20.4194L24.6774 31.3643H27.7742L32.0323 42.9863H28.9355ZM48.5484 32.6701V35.2818C46.871 35.2818 45.0645 34.7595 43.5161 33.9759C41.9677 34.7595 40.1613 35.1512 38.3548 35.2818L38.2258 32.6701C39.129 32.6701 40.0323 32.5395 40.9355 32.2784C39.7742 31.1031 39 29.6667 38.6129 28.0997H41.3226C41.7097 29.2749 42.4839 30.189 43.3871 30.9725C44.8065 29.7973 45.7097 28.0997 45.8387 26.1409H38.0968V23.5292H41.9677V20.9175H44.5484V23.5292H48.8065L48.9355 24.8351C49.0645 27.5773 48.0323 30.3196 46.0968 32.2784C47 32.5395 47.7742 32.6701 48.5484 32.6701Z" fill="white"/>
</g>
<defs>
<linearGradient id="paint0_linear_1_16616" x1="0.918368" y1="-9.36049" x2="75.9594" y2="-3.63541" gradientUnits="userSpaceOnUse">
<stop stop-color="#5FF5FF"/>
<stop offset="1" stop-color="#58D7FF"/>
</linearGradient>
<clipPath id="clip0_1_16616">
<rect width="40" height="40" fill="white" transform="translate(15 15)"/>
</clipPath>
</defs>
</svg>
