<svg width="70" height="70" viewBox="0 0 70 70" fill="none" xmlns="http://www.w3.org/2000/svg">
<circle cx="35" cy="35" r="35" fill="url(#paint0_linear_1_16628)"/>
<path d="M38.0312 17.0757L33.5938 19.7163L34.2031 20.7452L36.9531 19.1085L36.1562 24.2187L36.6484 25.0468L41.25 22.3069L40.6406 21.278L37.7266 23.0077L38.5156 17.8999L38.0312 17.0757ZM26.4922 19.7304C23.7699 21.2448 21.5013 23.4585 19.9205 26.1428C18.3397 28.8271 17.5041 31.8847 17.5 34.9999C17.5 39.6412 19.3437 44.0924 22.6256 47.3743C25.9075 50.6562 30.3587 52.4999 35 52.4999C38.7838 52.4979 42.4651 51.2696 45.4919 48.9991C48.5188 46.7286 50.7282 43.5382 51.7891 39.9062C50.2732 41.5116 48.446 42.7913 46.4191 43.667C44.3922 44.5428 42.208 44.9963 40 44.9999C35.6902 44.9999 31.557 43.2879 28.5095 40.2404C25.462 37.1929 23.75 33.0597 23.75 28.7499C23.7527 25.5385 24.707 22.3999 26.4922 19.7304ZM45.5938 23.7968L45.0547 25.0858L48.5 26.5233L43.1641 29.328L42.7344 30.3593L48.4922 32.7655L49.0312 31.4765L45.3828 29.953L50.7188 27.1483L51.1484 26.1171L45.5938 23.7968ZM36.6094 28.7968L28.9688 31.5312L29.6016 33.3046L34.3359 31.6093L31.5703 39.2577L32.0781 40.6718L40 37.8437L39.3672 36.0702L34.3516 37.8671L37.1172 30.2187L36.6094 28.7968Z" fill="white"/>
<defs>
<linearGradient id="paint0_linear_1_16628" x1="0.918368" y1="-9.36049" x2="75.9594" y2="-3.63541" gradientUnits="userSpaceOnUse">
<stop stop-color="#9FBCFF"/>
<stop offset="1" stop-color="#A6EAFF"/>
</linearGradient>
</defs>
</svg>
