<svg width="70" height="70" viewBox="0 0 70 70" fill="none" xmlns="http://www.w3.org/2000/svg">
<circle cx="35" cy="35" r="35" fill="url(#paint0_linear_1_16660)"/>
<path d="M27.6333 21.7998L25.25 19.4165C21.25 22.4665 18.6166 27.1665 18.3833 32.4998H21.7166C21.8347 30.3862 22.428 28.3264 23.4524 26.4738C24.4768 24.6212 25.9059 23.0236 27.6333 21.7998ZM48.2833 32.4998H51.6166C51.3666 27.1665 48.7333 22.4665 44.75 19.4165L42.3833 21.7998C44.1033 23.0296 45.526 24.629 46.547 26.4806C47.568 28.3322 48.1612 30.3889 48.2833 32.4998ZM45 33.3332C45 28.2165 42.2666 23.9332 37.5 22.7998V21.6665C37.5 20.2832 36.3833 19.1665 35 19.1665C33.6166 19.1665 32.5 20.2832 32.5 21.6665V22.7998C27.7166 23.9332 25 28.1998 25 33.3332V41.6665L21.6666 44.9998V46.6665H48.3333V44.9998L45 41.6665V33.3332ZM35 51.6665C35.2333 51.6665 35.45 51.6498 35.6666 51.5998C36.75 51.3665 37.6333 50.6332 38.0666 49.6332C38.2333 49.2332 38.3166 48.7998 38.3166 48.3332H31.65C31.6666 50.1665 33.15 51.6665 35 51.6665Z" fill="white"/>
<defs>
<linearGradient id="paint0_linear_1_16660" x1="0.918368" y1="-9.36049" x2="75.9594" y2="-3.63541" gradientUnits="userSpaceOnUse">
<stop stop-color="#FFD89F"/>
<stop offset="1" stop-color="#FFEBA6"/>
</linearGradient>
</defs>
</svg>
