<svg width="70" height="70" viewBox="0 0 70 70" fill="none" xmlns="http://www.w3.org/2000/svg">
<circle cx="35" cy="35" r="35" fill="url(#paint0_linear_1_16611)"/>
<path d="M35 16C34.0336 16 32.9935 16.8312 32.1664 18.4831C31.5849 19.66 31.1345 21.2013 30.9297 22.9448C31.3065 23.2724 31.6832 23.6164 32.0517 23.9849C32.9853 24.9103 33.7879 25.8931 34.4513 26.8759C34.6315 26.8677 34.8198 26.8595 35 26.8595C35.1966 26.8595 35.3931 26.8677 35.5897 26.8841C36.253 25.8931 37.0556 24.9185 37.9892 23.9849C38.3414 23.6328 38.7099 23.2888 39.0784 22.9776C38.8655 21.2217 38.4233 19.6673 37.8336 18.4831C37.0065 16.8312 35.9664 16 35 16ZM23.3052 20.9236C22.5517 20.9343 21.9678 21.1497 21.5862 21.5329C20.9048 22.2143 20.7541 23.5345 21.3405 25.2871C21.926 27.0397 23.2151 29.0953 25.0741 30.9543C25.7539 31.6341 26.4664 32.2401 27.1707 32.7642C27.9487 30.0453 30.1108 27.9078 32.8379 27.1543C32.3138 26.4336 31.6996 25.7129 31.0116 25.025C29.1526 23.1659 27.097 21.8736 25.3444 21.2872C24.5746 21.0309 23.8866 20.9154 23.3052 20.9236ZM46.7358 20.9236C46.1543 20.9154 45.4664 21.0325 44.7047 21.2905C42.9522 21.8753 40.8966 23.1659 39.0375 25.025C38.3414 25.7211 37.7272 26.4418 37.203 27.1625C39.922 27.9241 42.0677 30.0698 42.8375 32.7888C43.5582 32.2565 44.2789 31.6422 44.9668 30.9543C46.8259 29.0953 48.1116 27.0397 48.7013 25.2871C49.2909 23.5345 49.1353 22.2168 48.4556 21.5338C48.0707 21.1497 47.4892 20.9334 46.7358 20.9236ZM35 28.3336C31.3065 28.3336 28.3336 31.3065 28.3336 35C28.3336 38.6935 31.3065 41.6664 35 41.6664C38.6935 41.6664 41.6664 38.6935 41.6664 35C41.6664 31.3065 38.6935 28.3336 35 28.3336ZM23.0267 30.9216C21.252 31.1263 19.6796 31.5767 18.4831 32.1664C16.8312 32.9935 16 34.0336 16 35C16 35.9664 16.8312 37.0065 18.4831 37.8336C19.669 38.4233 21.225 38.8655 22.9776 39.0784C23.3134 38.6935 23.6655 38.3086 24.0341 37.9401C24.9513 37.0228 25.9095 36.2284 26.8759 35.5733C26.8677 35.3849 26.8595 35.1966 26.8595 35C26.8595 34.7871 26.8677 34.5741 26.8841 34.3694C25.9095 33.7142 24.9513 32.9198 24.0341 32.0026C23.6819 31.6504 23.3461 31.2819 23.0267 30.9216ZM47.006 30.9216C46.6866 31.2819 46.3591 31.6422 46.0069 31.9944C45.0733 32.928 44.0987 33.7306 43.1159 34.394C43.1323 34.5905 43.1405 34.7953 43.1405 35C43.1405 35.1802 43.1323 35.3685 43.1241 35.5487C44.0987 36.2039 45.0733 37.0065 45.9987 37.9319C46.3754 38.3086 46.7276 38.6853 47.0552 39.0703C48.7996 38.8655 50.3392 38.4151 51.5185 37.8336C53.1728 37.0065 54 35.9664 54 35C54 34.0336 53.1728 32.9935 51.5185 32.1664C50.331 31.5767 48.7668 31.1263 47.006 30.9216ZM42.8457 37.1539C42.1004 39.8892 39.9547 42.0513 37.2358 42.8293C37.7517 43.5336 38.3496 44.2379 39.0293 44.9095C40.8884 46.7685 42.944 48.0543 44.6966 48.644C46.4491 49.2254 47.7677 49.078 48.4474 48.3983C49.1353 47.7185 49.2828 46.3918 48.6931 44.6392C48.1116 42.8866 46.8177 40.831 44.9586 38.972C44.2707 38.2841 43.5664 37.678 42.8457 37.1539ZM27.1543 37.1866C26.45 37.7108 25.7539 38.3086 25.0741 38.9802C23.2151 40.8392 21.9269 42.8948 21.3421 44.6474C20.7516 46.4 20.9023 47.7185 21.5853 48.4065C22.2651 49.0862 23.5918 49.2418 25.3362 48.644C27.0888 48.0625 29.1444 46.7685 31.0034 44.9095C31.675 44.2379 32.2728 43.5418 32.797 42.8375C30.0698 42.0677 27.9241 39.9138 27.1543 37.1866ZM34.4103 43.1159C33.7552 44.0823 32.969 45.0405 32.0517 45.9578C31.6832 46.3263 31.3065 46.6784 30.9216 47.006C31.1263 48.7668 31.5767 50.331 32.1664 51.5185C32.9935 53.1728 34.0336 54 35 54C35.9664 54 37.0065 53.1728 37.8336 51.5185C38.4233 50.3228 38.8737 48.7504 39.0784 46.9733C38.7099 46.6539 38.3414 46.3099 37.981 45.9496C37.0638 45.0323 36.2776 44.0823 35.6306 43.1159C35.4177 43.1323 35.2129 43.1405 35 43.1405C34.8034 43.1405 34.6069 43.1323 34.4103 43.1159Z" fill="white"/>
<defs>
<linearGradient id="paint0_linear_1_16611" x1="0.918368" y1="-9.36049" x2="75.9594" y2="-3.63541" gradientUnits="userSpaceOnUse">
<stop stop-color="#6CFF5F"/>
<stop offset="1" stop-color="#4EDE5C"/>
</linearGradient>
</defs>
</svg>
