<svg width="70" height="70" viewBox="0 0 70 70" fill="none" xmlns="http://www.w3.org/2000/svg">
<circle cx="35" cy="35" r="35" fill="url(#paint0_linear_1_16655)"/>
<path d="M49.8477 43.8203L45.5391 41.332C45.4683 41.2915 45.3902 41.2653 45.3093 41.255C45.2284 41.2446 45.1462 41.2503 45.0675 41.2717C44.9888 41.2931 44.9151 41.3298 44.8505 41.3797C44.786 41.4296 44.7319 41.4917 44.6914 41.5625L43.9141 42.9102C43.7422 43.207 43.8438 43.5898 44.1406 43.7617L48.4492 46.25C48.52 46.2905 48.5981 46.3167 48.679 46.3271C48.7599 46.3374 48.8421 46.3317 48.9208 46.3103C48.9995 46.2889 49.0732 46.2522 49.1378 46.2023C49.2023 46.1524 49.2564 46.0903 49.2969 46.0195L50.0742 44.6719C50.2461 44.375 50.1406 43.9922 49.8477 43.8203ZM44.6875 28.4375C44.728 28.5083 44.7821 28.5704 44.8466 28.6203C44.9111 28.6702 44.9849 28.7069 45.0636 28.7283C45.1423 28.7497 45.2245 28.7554 45.3054 28.745C45.3863 28.7347 45.4644 28.7085 45.5352 28.668L49.8438 26.1797C50.1406 26.0078 50.2422 25.625 50.0703 25.3281L49.2969 23.9844C49.2564 23.9136 49.2023 23.8515 49.1378 23.8016C49.0732 23.7517 48.9995 23.715 48.9208 23.6936C48.8421 23.6722 48.7599 23.6665 48.679 23.6768C48.5981 23.6872 48.52 23.7134 48.4492 23.7539L44.1406 26.2422C43.998 26.3254 43.894 26.4616 43.8516 26.6212C43.8091 26.7808 43.8316 26.9507 43.9141 27.0938L44.6875 28.4375ZM51.4844 33.5938H46.4844C46.1406 33.5938 45.8594 33.875 45.8594 34.2188V35.7812C45.8594 36.125 46.1406 36.4062 46.4844 36.4062H51.4844C51.8281 36.4062 52.1094 36.125 52.1094 35.7812V34.2188C52.1094 33.875 51.8281 33.5938 51.4844 33.5938ZM39.4492 19.4922C39.2188 19.4922 38.9844 19.5547 38.7695 19.6992L24.9219 28.75H18.5156C18.1719 28.75 17.8906 29.0312 17.8906 29.375V40.625C17.8906 40.9688 18.1719 41.25 18.5156 41.25H24.9219L38.7695 50.3008C38.9844 50.4414 39.2227 50.5078 39.4492 50.5078C40.1016 50.5078 40.7031 49.9883 40.7031 49.2539V20.7461C40.7031 20.0117 40.1016 19.4922 39.4492 19.4922Z" fill="white"/>
<defs>
<linearGradient id="paint0_linear_1_16655" x1="0.918368" y1="-9.36049" x2="75.9594" y2="-3.63541" gradientUnits="userSpaceOnUse">
<stop stop-color="#9FFFA8"/>
<stop offset="1" stop-color="#ADFFA6"/>
</linearGradient>
</defs>
</svg>
