<svg width="70" height="70" viewBox="0 0 70 70" fill="none" xmlns="http://www.w3.org/2000/svg">
<circle cx="35" cy="35" r="35" fill="url(#paint0_linear_1_16633)"/>
<path d="M29 15C27.9391 15 26.9217 15.4214 26.1716 16.1716C25.4214 16.9217 25 17.9391 25 19V21.58C25.926 21.208 26.94 21 28 21H40C41.028 20.9988 42.0466 21.1957 43 21.58V19C43 17.9391 42.5786 16.9217 41.8284 16.1716C41.0783 15.4214 40.0609 15 39 15H29ZM28 23C26.4087 23 24.8826 23.6321 23.7574 24.7574C22.6321 25.8826 22 27.4087 22 29V41C22 42.5913 22.6321 44.1174 23.7574 45.2426C24.8826 46.3679 26.4087 47 28 47H40C41.5913 47 43.1174 46.3679 44.2426 45.2426C45.3679 44.1174 46 42.5913 46 41V37C46.5304 37 47.0391 36.7893 47.4142 36.4142C47.7893 36.0391 48 35.5304 48 35V33C48 32.4696 47.7893 31.9609 47.4142 31.5858C47.0391 31.2107 46.5304 31 46 31V29C46 27.4087 45.3679 25.8826 44.2426 24.7574C43.1174 23.6321 41.5913 23 40 23H28ZM28 49C26.972 49.0012 25.9534 48.8043 25 48.42V51C25 52.0609 25.4214 53.0783 26.1716 53.8284C26.9217 54.5786 27.9391 55 29 55H39C40.0609 55 41.0783 54.5786 41.8284 53.8284C42.5786 53.0783 43 52.0609 43 51V48.42C42.0466 48.8043 41.028 49.0012 40 49H28Z" fill="white"/>
<defs>
<linearGradient id="paint0_linear_1_16633" x1="0.918368" y1="-9.36049" x2="75.9594" y2="-3.63541" gradientUnits="userSpaceOnUse">
<stop stop-color="#FF9FF5"/>
<stop offset="1" stop-color="#EDA6FF"/>
</linearGradient>
</defs>
</svg>
